<?xml version="1.0" standalone="no"?>
<!DOCTYPE svg PUBLIC "-//W3C//DTD SVG 20010904//EN"
"http://www.w3.org/TR/2001/REC-SVG-20010904/DTD/svg10.dtd">
<svg version="1.0"
    xmlns="http://www.w3.org/2000/svg"
width="200.000000pt" height="60.000000pt" viewBox="0 0 200.000000 60.000000"
preserveAspectRatio="xMidYMid meet">
    <metadata>
Created by potrace 1.10, written by Peter Selinger 2001-2011
</metadata>
    <g transform="translate(0.000000,60.000000) scale(0.100000,-0.100000)"
fill="#ffffff" stroke="none">
        <path d="M38 593 c12 -2 30 -2 40 0 9 3 -1 5 -23 4 -22 0 -30 -2 -17 -4z"/>
        <path d="M153 593 c9 -2 25 -2 35 0 9 3 1 5 -18 5 -19 0 -27 -2 -17 -5z"/>
        <path d="M221 584 c0 -11 3 -14 6 -6 3 7 2 16 -1 19 -3 4 -6 -2 -5 -13z"/>
        <path d="M278 593 c7 -3 16 -2 19 1 4 3 -2 6 -13 5 -11 0 -14 -3 -6 -6z"/>
        <path d="M368 593 c12 -2 30 -2 40 0 9 3 -1 5 -23 4 -22 0 -30 -2 -17 -4z"/>
        <path d="M441 584 c0 -11 3 -14 6 -6 3 7 2 16 -1 19 -3 4 -6 -2 -5 -13z"/>
        <path d="M478 593 c12 -2 30 -2 40 0 9 3 -1 5 -23 4 -22 0 -30 -2 -17 -4z"/>
        <path d="M553 555 c0 -27 2 -38 4 -22 2 15 2 37 0 50 -2 12 -4 0 -4 -28z"/>
        <path d="M588 593 c12 -2 32 -2 45 0 12 2 2 4 -23 4 -25 0 -35 -2 -22 -4z"/>
        <path d="M662 498 l-2 -107 -42 -4 -43 -4 43 -1 42 -2 0 -55 c0 -30 3 -55 8
-55 4 0 5 24 4 54 -3 46 -1 55 15 59 16 4 16 5 1 6 -15 1 -18 15 -21 109 l-3
107 -2 -107z"/>
        <path d="M698 593 c12 -2 32 -2 45 0 12 2 2 4 -23 4 -25 0 -35 -2 -22 -4z"/>
        <path d="M774 500 c0 -58 1 -81 3 -52 2 28 2 76 0 105 -2 28 -3 5 -3 -53z"/>
        <path d="M818 593 c12 -2 30 -2 40 0 9 3 -1 5 -23 4 -22 0 -30 -2 -17 -4z"/>
        <path d="M884 490 c0 -63 1 -89 3 -57 2 31 2 83 0 115 -2 31 -3 5 -3 -58z"/>
        <path d="M918 593 c12 -2 32 -2 45 0 12 2 2 4 -23 4 -25 0 -35 -2 -22 -4z"/>
        <path d="M992 498 c1 -57 3 -82 5 -56 l4 47 47 4 47 3 -48 2 -49 2 4 50 c1 28
0 50 -4 50 -5 0 -7 -46 -6 -102z"/>
        <path d="M1038 593 c12 -2 30 -2 40 0 9 3 -1 5 -23 4 -22 0 -30 -2 -17 -4z"/>
        <path d="M1102 498 l-2 -108 -102 -2 c-57 -1 -82 -3 -56 -5 39 -3 47 -8 51
-26 l4 -22 2 23 1 22 263 2 262 3 -207 2 -207 3 -4 108 -3 107 -2 -107z"/>
        <path d="M1138 593 c12 -2 32 -2 45 0 12 2 2 4 -23 4 -25 0 -35 -2 -22 -4z"/>
        <path d="M1258 593 c12 -2 30 -2 40 0 9 3 -1 5 -23 4 -22 0 -30 -2 -17 -4z"/>
        <path d="M1358 593 c6 -2 18 -2 25 0 6 3 1 5 -13 5 -14 0 -19 -2 -12 -5z"/>
        <path d="M1772 498 l-2 -107 -57 -4 c-32 -2 21 -3 117 -3 101 0 128 2 63 3
l-112 4 -4 107 -3 107 -2 -107z"/>
        <path d="M1823 593 c9 -2 23 -2 30 0 6 3 -1 5 -18 5 -16 0 -22 -2 -12 -5z"/>
        <path d="M1878 503 c3 -129 12 -133 12 -5 0 56 -3 102 -7 102 -5 0 -7 -44 -5
-97z"/>
        <path d="M113 545 c0 -22 2 -30 4 -17 2 12 2 30 0 40 -3 9 -5 -1 -4 -23z"/>
        <path d="M1213 545 c0 -22 2 -30 4 -17 2 12 2 30 0 40 -3 9 -5 -1 -4 -23z"/>
        <path d="M1323 545 c0 -22 2 -30 4 -17 2 12 2 30 0 40 -3 9 -5 -1 -4 -23z"/>
        <path d="M1549 538 c-2 -24 -1 -65 2 -93 5 -40 6 -32 7 43 2 96 -3 123 -9 50z"/>
        <path d="M1663 545 c0 -22 2 -30 4 -17 2 12 2 30 0 40 -3 9 -5 -1 -4 -23z"/>
        <path d="M1993 545 c0 -22 2 -30 4 -17 2 12 2 30 0 40 -3 9 -5 -1 -4 -23z"/>
        <path d="M150 482 c-25 -37 -47 -71 -49 -75 -2 -5 36 -7 83 -5 47 2 86 1 86
-1 0 -2 -16 -26 -36 -53 -33 -47 -34 -51 -20 -73 9 -14 16 -26 16 -27 0 -2
-21 -1 -47 1 l-48 3 19 -21 c16 -17 31 -21 87 -21 l69 0 -32 44 -31 44 47 67
c25 36 46 68 46 70 0 3 -38 5 -85 5 l-85 0 22 35 23 35 125 0 125 0 23 -35 22
-35 -63 0 c-51 0 -64 -3 -75 -20 -12 -20 -10 -20 103 -20 l114 0 -52 75 -52
75 -145 0 -145 0 -45 -68z m17 -58 c-3 -3 -12 -4 -19 -1 -8 3 -5 6 6 6 11 1
17 -2 13 -5z m98 -184 c3 -5 1 -10 -4 -10 -6 0 -11 5 -11 10 0 6 2 10 4 10 3
0 8 -4 11 -10z"/>
        <path d="M30 494 c38 -8 90 -9 90 -2 0 4 -24 7 -52 7 -29 -1 -46 -3 -38 -5z"/>
        <path d="M442 480 c0 -14 2 -19 5 -12 2 6 2 18 0 25 -3 6 -5 1 -5 -13z"/>
        <path d="M598 493 c12 -2 30 -2 40 0 9 3 -1 5 -23 4 -22 0 -30 -2 -17 -4z"/>
        <path d="M688 493 c6 -2 18 -2 25 0 6 3 1 5 -13 5 -14 0 -19 -2 -12 -5z"/>
        <path d="M738 493 c7 -3 16 -2 19 1 4 3 -2 6 -13 5 -11 0 -14 -3 -6 -6z"/>
        <path d="M808 493 c12 -2 30 -2 40 0 9 3 -1 5 -23 4 -22 0 -30 -2 -17 -4z"/>
        <path d="M918 493 c12 -2 32 -2 45 0 12 2 2 4 -23 4 -25 0 -35 -2 -22 -4z"/>
        <path d="M1138 493 c12 -2 32 -2 45 0 12 2 2 4 -23 4 -25 0 -35 -2 -22 -4z"/>
        <path d="M1210 489 c0 -5 5 -7 10 -4 6 3 10 8 10 11 0 2 -4 4 -10 4 -5 0 -10
-5 -10 -11z"/>
        <path d="M1263 493 c9 -2 25 -2 35 0 9 3 1 5 -18 5 -19 0 -27 -2 -17 -5z"/>
        <path d="M1320 489 c0 -5 5 -7 10 -4 6 3 10 8 10 11 0 2 -4 4 -10 4 -5 0 -10
-5 -10 -11z"/>
        <path d="M1368 493 c12 -2 30 -2 40 0 9 3 -1 5 -23 4 -22 0 -30 -2 -17 -4z"/>
        <path d="M1430 490 c0 -5 5 -10 10 -10 6 0 10 5 10 10 0 6 -4 10 -10 10 -5 0
-10 -4 -10 -10z"/>
        <path d="M1478 493 c12 -2 30 -2 40 0 9 3 -1 5 -23 4 -22 0 -30 -2 -17 -4z"/>
        <path d="M1588 493 c12 -2 30 -2 40 0 9 3 -1 5 -23 4 -22 0 -30 -2 -17 -4z"/>
        <path d="M1655 490 c3 -5 8 -10 11 -10 2 0 4 5 4 10 0 6 -5 10 -11 10 -5 0 -7
-4 -4 -10z"/>
        <path d="M1698 493 c12 -2 32 -2 45 0 12 2 2 4 -23 4 -25 0 -35 -2 -22 -4z"/>
        <path d="M1808 493 c12 -2 30 -2 40 0 9 3 -1 5 -23 4 -22 0 -30 -2 -17 -4z"/>
        <path d="M1918 493 c12 -2 32 -2 45 0 12 2 2 4 -23 4 -25 0 -35 -2 -22 -4z"/>
        <path d="M331 474 c0 -11 3 -14 6 -6 3 7 2 16 -1 19 -3 4 -6 -2 -5 -13z"/>
        <path d="M1212 450 c0 -14 2 -19 5 -12 2 6 2 18 0 25 -3 6 -5 1 -5 -13z"/>
        <path d="M1321 433 c0 -29 2 -33 8 -18 7 18 4 55 -5 55 -2 0 -4 -17 -3 -37z"/>
        <path d="M1663 435 c0 -22 2 -30 4 -17 2 12 2 30 0 40 -3 9 -5 -1 -4 -23z"/>
        <path d="M1993 435 c0 -22 2 -30 4 -17 2 12 2 30 0 40 -3 9 -5 -1 -4 -23z"/>
        <path d="M13 383 c9 -2 25 -2 35 0 9 3 1 5 -18 5 -19 0 -27 -2 -17 -5z"/>
        <path d="M53 340 l-30 -45 89 -127 90 -128 141 0 142 0 31 48 c17 26 39 59 48
75 l18 27 -201 0 c-199 0 -201 0 -189 -20 12 -19 24 -20 165 -20 l153 0 -22
-35 -23 -35 -124 2 -125 3 -72 105 c-72 104 -72 105 -56 133 14 22 23 27 58
27 26 0 47 6 57 18 15 16 12 17 -52 17 l-68 0 -30 -45z m487 -180 c0 -5 -4
-10 -9 -10 -6 0 -13 5 -16 10 -3 6 1 10 9 10 9 0 16 -4 16 -10z"/>
        <path d="M442 338 l-2 -58 -49 0 -50 0 -4 48 -3 47 -2 -47 c-2 -40 -5 -47 -24
-51 -23 -4 -23 -4 -1 -6 17 -1 23 -9 26 -33 l4 -33 1 33 c2 32 3 32 51 32 49
0 50 -1 54 -32 l4 -33 1 33 c2 32 3 32 51 32 49 0 50 -1 54 -32 l4 -33 1 32
c2 31 4 32 50 36 l47 3 -47 2 -47 2 -4 58 -3 57 -2 -57 -2 -58 -50 0 -49 0 -4
58 -3 57 -2 -57z"/>
        <path d="M712 368 c-16 -16 -16 -110 0 -126 14 -14 128 -16 128 -2 0 5 -25 10
-56 12 l-57 3 0 50 0 50 57 3 c31 2 56 7 56 12 0 14 -114 12 -128 -2z"/>
        <path d="M1518 354 c-11 -23 -10 -29 11 -45 15 -12 39 -19 68 -19 37 0 44 -3
41 -17 -3 -15 -16 -19 -66 -21 -85 -4 -79 -22 8 -22 65 0 71 2 82 25 18 39
-12 65 -74 65 -42 0 -49 3 -46 18 2 13 15 18 56 20 72 4 66 22 -8 22 -55 0
-61 -2 -72 -26z"/>
        <path d="M1992 345 c0 -16 2 -22 5 -12 2 9 2 23 0 30 -3 6 -5 -1 -5 -18z"/>
        <path d="M772 315 c0 -16 2 -22 5 -12 2 9 2 23 0 30 -3 6 -5 -1 -5 -18z"/>
        <path d="M872 328 c-16 -16 -16 -70 0 -86 16 -16 90 -16 106 0 7 7 12 26 12
43 0 42 -16 55 -65 55 -23 0 -46 -5 -53 -12z m88 -43 c0 -33 -2 -35 -35 -35
-33 0 -35 2 -35 35 0 33 2 35 35 35 33 0 35 -2 35 -35z"/>
        <path d="M1022 328 c-7 -7 -12 -39 -12 -75 0 -49 3 -63 15 -63 12 0 15 14 15
66 l0 65 37 -3 c34 -3 37 -6 37 -33 0 -26 -4 -30 -32 -33 -42 -4 -41 -22 1
-22 41 0 57 15 57 55 0 42 -16 55 -65 55 -23 0 -46 -5 -53 -12z"/>
        <path d="M1180 330 c0 -5 18 -10 40 -10 39 0 40 -1 40 -36 0 -34 -1 -35 -35
-32 -45 4 -50 22 -7 26 42 4 42 22 -1 22 -37 0 -57 -15 -57 -42 0 -20 32 -31
81 -26 41 4 60 41 41 83 -10 21 -18 25 -57 25 -25 0 -45 -4 -45 -10z"/>
        <path d="M1314 325 c-11 -27 4 -44 43 -47 51 -4 48 -22 -4 -26 -24 -2 -43 -8
-43 -13 0 -6 22 -9 53 -7 50 3 52 4 52 33 0 28 -3 30 -42 33 -54 4 -56 22 -3
22 22 0 40 5 40 10 0 17 -90 12 -96 -5z"/>
        <path d="M1694 327 c-3 -8 -4 -32 -2 -53 3 -38 4 -39 46 -42 25 -2 42 1 42 7
0 6 -16 11 -36 11 -34 0 -35 1 -32 33 3 29 6 32 36 32 42 0 46 -19 5 -23 -49
-5 -40 -24 10 -20 39 3 42 5 42 33 0 29 -1 30 -53 33 -38 2 -54 -1 -58 -11z"/>
        <path d="M1842 328 c-7 -7 -12 -26 -12 -43 0 -42 16 -55 65 -55 49 0 65 13 65
55 0 42 -16 55 -65 55 -23 0 -46 -5 -53 -12z m88 -43 c0 -33 -2 -35 -35 -35
-33 0 -35 2 -35 35 0 33 2 35 35 35 33 0 35 -2 35 -35z"/>
        <path d="M111 304 c0 -11 3 -14 6 -6 3 7 2 16 -1 19 -3 4 -6 -2 -5 -13z"/>
        <path d="M128 273 c12 -2 32 -2 45 0 12 2 2 4 -23 4 -25 0 -35 -2 -22 -4z"/>
        <path d="M778 273 c6 -2 18 -2 25 0 6 3 1 5 -13 5 -14 0 -19 -2 -12 -5z"/>
        <path d="M1458 273 c12 -2 32 -2 45 0 12 2 2 4 -23 4 -25 0 -35 -2 -22 -4z"/>
        <path d="M664 130 c0 -74 2 -98 3 -52 l4 82 49 0 49 0 4 -82 3 -83 2 83 2 82
50 0 49 0 4 -82 3 -83 2 83 2 82 105 0 104 0 4 -82 3 -83 2 83 2 82 330 0 329
0 4 -82 3 -83 2 83 2 82 50 0 49 0 4 -82 3 -83 2 83 2 82 57 0 c31 0 54 3 51
6 -3 3 -204 5 -446 5 l-441 -1 -4 22 -4 23 -2 -22 c-1 -21 -6 -23 -50 -23 -30
0 -51 5 -54 13 -4 10 -6 10 -6 0 -1 -9 -18 -13 -50 -13 -43 0 -50 3 -54 23
l-4 22 -2 -22 c-1 -21 -6 -23 -50 -23 -43 0 -50 3 -54 23 l-4 22 -2 -22 c-1
-21 -6 -23 -50 -23 l-50 0 -4 48 c-2 26 -3 -14 -3 -88z"/>
        <path d="M1993 215 c0 -22 2 -30 4 -17 2 12 2 30 0 40 -3 9 -5 -1 -4 -23z"/>
        <path d="M1 224 c0 -11 3 -14 6 -6 3 7 2 16 -1 19 -3 4 -6 -2 -5 -13z"/>
        <path d="M23 163 c15 -2 37 -2 50 0 12 2 0 4 -28 4 -27 0 -38 -2 -22 -4z"/>
        <path d="M603 163 c9 -2 25 -2 35 0 9 3 1 5 -18 5 -19 0 -27 -2 -17 -5z"/>
        <path d="M993 75 c0 -44 2 -61 4 -37 2 23 2 59 0 80 -2 20 -4 1 -4 -43z"/>
        <path d="M1663 115 c0 -22 2 -30 4 -17 2 12 2 30 0 40 -3 9 -5 -1 -4 -23z"/>
        <path d="M1993 115 c0 -22 2 -30 4 -17 2 12 2 30 0 40 -3 9 -5 -1 -4 -23z"/>
        <path d="M1320 111 c0 -17 2 -31 4 -31 8 0 13 51 5 56 -5 3 -9 -9 -9 -25z"/>
        <path d="M1549 97 c-2 -24 -1 -57 2 -73 4 -19 7 -3 8 44 1 79 -5 97 -10 29z"/>
        <path d="M331 114 c0 -11 3 -14 6 -6 3 7 2 16 -1 19 -3 4 -6 -2 -5 -13z"/>
        <path d="M441 114 c0 -11 3 -14 6 -6 3 7 2 16 -1 19 -3 4 -6 -2 -5 -13z"/>
        <path d="M1212 105 c0 -16 2 -22 5 -12 2 9 2 23 0 30 -3 6 -5 -1 -5 -18z"/>
        <path d="M108 88 c-2 -18 0 -46 3 -63 5 -22 7 -13 8 33 1 67 -4 83 -11 30z"/>
        <path d="M553 60 c0 -36 2 -50 4 -32 2 17 2 47 0 65 -2 17 -4 3 -4 -33z"/>
        <path d="M825 60 l-30 -8 33 -1 c17 0 32 4 32 9 0 6 -1 9 -2 9 -2 -1 -16 -5
-33 -9z"/>
        <path d="M1210 60 c0 -5 5 -10 10 -10 6 0 10 5 10 10 0 6 -4 10 -10 10 -5 0
-10 -4 -10 -10z"/>
        <path d="M1320 60 c0 -5 5 -10 10 -10 6 0 10 5 10 10 0 6 -4 10 -10 10 -5 0
-10 -4 -10 -10z"/>
        <path d="M1430 60 c0 -5 5 -10 10 -10 6 0 10 5 10 10 0 6 -4 10 -10 10 -5 0
-10 -4 -10 -10z"/>
        <path d="M1650 60 c0 -5 5 -10 10 -10 6 0 10 5 10 10 0 6 -4 10 -10 10 -5 0
-10 -4 -10 -10z"/>
        <path d="M943 53 c9 -2 23 -2 30 0 6 3 -1 5 -18 5 -16 0 -22 -2 -12 -5z"/>
        <path d="M1028 53 c6 -2 18 -2 25 0 6 3 1 5 -13 5 -14 0 -19 -2 -12 -5z"/>
        <path d="M1578 53 c6 -2 18 -2 25 0 6 3 1 5 -13 5 -14 0 -19 -2 -12 -5z"/>
        <path d="M1212 20 c0 -14 2 -19 5 -12 2 6 2 18 0 25 -3 6 -5 1 -5 -13z"/>
        <path d="M1322 20 c0 -14 2 -19 5 -12 2 6 2 18 0 25 -3 6 -5 1 -5 -13z"/>
        <path d="M1662 20 c0 -14 2 -19 5 -12 2 6 2 18 0 25 -3 6 -5 1 -5 -13z"/>
        <path d="M1992 20 c0 -14 2 -19 5 -12 2 6 2 18 0 25 -3 6 -5 1 -5 -13z"/>
        <path d="M1 14 c0 -11 3 -14 6 -6 3 7 2 16 -1 19 -3 4 -6 -2 -5 -13z"/>
    </g>
</svg>
