<?xml version="1.0" encoding="utf-8"?>
<!-- Generator: Adobe Illustrator 23.0.4, SVG Export Plug-In . SVG Version: 6.00 Build 0)  -->
<svg version="1.1" id="Layer_1"
    xmlns="http://www.w3.org/2000/svg"
    xmlns:xlink="http://www.w3.org/1999/xlink" x="0px" y="0px"
	viewBox="0 0 1440 824" style="enable-background:new 0 0 1440 824;" xml:space="preserve">
    <style type="text/css">
	.st0{fill:#0280fe;stroke:lightcyan;stroke-width:1.15;stroke-linecap:round;stroke-linejoin:round;}
	.st1{fill:#0280fe;stroke:lightcyan;stroke-width:1.373;stroke-linecap:round;stroke-linejoin:round;}
	.st2{fill:#0280fe;stroke:lightcyan;stroke-width:1.387;stroke-linecap:round;stroke-linejoin:round;}
</style>
    <title>Group 93</title>
    <desc>Created with Sketch.</desc>
    <g>
        <defs>
            <ellipse id="Oval" cx="1212" cy="433.5" rx="1212" ry="433.5"/>
        </defs>
        <clipPath id="Oval_1_">
            <use xlink:href="#Oval"  style="overflow:visible;"/>
        </clipPath>
        <g id="Symbols" class="st0">
            <g id="Footer" transform="translate(-1.000000, 0.000000)">
                <g id="Group-93">
                    <g transform="translate(679.500000, 169.000000) rotate(-90.000000) translate(-679.500000, -169.000000) translate(-3.500000, -595.500000)">
                        <path id="Stroke-1" class="st1" d="M237.8,772.4c19.9-59.4,42.6-132.2,32.9-187.2C237.7,397.7,29.5,427.7,29,427.8
						c0.6-0.1,0.9-0.1,1-0.1"/>
                        <path id="Stroke-3" class="st1" d="M199,986.7c-0.2-38.1,3.1-76.1,9.8-112.7"/>
                        <path id="Stroke-5" class="st1" d="M178,315c49.1,14.7,91.9,38.6,127.3,71.1c44.3,40.7,77,95,97.3,161.5
						c26.1,85.7-7.2,185.2-34,265.2c-10.5,31.2-20.3,60.7-24.6,84c-9.9,54-10.3,111.9-1.2,167.5c10.6,65,33.7,126.2,68.6,181.7
						c40.1,63.8,95.3,119.3,164.3,165c78,51.7,174.3,91.2,286,117.4"/>
                        <path id="Stroke-7" class="st1" d="M259.6,439.9c-2.1-2.1-4.2-4.1-6.4-6.1c-28.2-25.9-62.6-45.1-102.3-56.9
						C82.1,356.3,21.6,364.7,21,364.8"/>
                        <path id="Stroke-9" class="st1" d="M382,8c40.8,9.4,79.4,24.6,114.9,44.6c35.5,20,67.9,45,96.2,73.8
						c28.4,28.9,52.7,61.7,72.1,97.5c19.4,35.8,33.9,74.7,42.6,115.7"/>
                        <path id="Stroke-11" class="st1" d="M218,0c63.5,10.9,123.5,31.5,178.3,60.4s104.4,66,147.4,109.6c42.9,43.7,79.1,94,107,149.3
						s47.5,115.6,57.3,179.3"/>
                        <path id="Stroke-13" class="st2" d="M52,54.7c0,0,408.6-30.5,556.6,322.8c108.5,258.9,28.5,415.2,13,516.6
						c-23.8,155.5-94.3,469.4,743.8,362.2"/>
                        <path id="Stroke-15" class="st1" d="M595.1,669c-3.8,50.9-14.3,101.6-32.1,150"/>
                        <path id="Stroke-17" class="st1" d="M33,109.7c52.9-2.6,106.4,1.7,158,12.4c51.6,10.7,101.3,27.8,146.4,50.7
						s85.7,51.6,119.1,85.6c33.5,34.1,61.3,74,83.2,117.8c21.8,43.8,37.7,91.4,47.1,140.8"/>
                        <path id="Stroke-21" class="st1" d="M125,508c17,5.7,33,15.6,47.9,30.7c14.7,15,24.3,30.7,29.9,47.2s7.4,33.8,6.5,51.8
						c-0.9,18-4.5,36.8-9.6,56.3c-5.1,19.5-11.6,39.7-18.3,60.6c-8.2,25.4-16.6,51.6-23.4,78.7c-6.7,27.2-11.7,55.3-13,84.5"/>
                        <path id="Stroke-77" class="st1" d="M271.3,1075.2c-10.2-62.7-9.8-128.2,1.4-189.3c5.1-27.8,15.7-59.4,26.9-92.8
						c23.9-71.3,68.6-176.3,14.7-275.1"/>
                        <path id="Stroke-79" class="st1" d="M611,1358c71.7,47.5,160.9,84,265.2,108.4"/>
                        <path id="Stroke-81" class="st1" d="M406,1054c9.2,56.6,29.3,109.7,59.6,158"/>
                        <path id="Stroke-83" class="st1" d="M244,270c126.8,51.9,252.2,167.7,223.7,424.4c-5.6,50.6-25.1,97.3-39,139.1"/>
                        <path id="Stroke-85" class="st1" d="M519,1178c30.3,48.3,72.9,90.8,126.6,126.4c65.3,43.3,147.6,76.7,244.5,99.4"/>
                        <path id="Stroke-87" class="st1" d="M531.4,701c-2.5,73.8-91.2,216.6-62.8,342.5"/>
                        <path id="Stroke-89" class="st1" d="M0,165.1c11.2-1.7,74.5-3.3,150,11c46.5,8.7,90,21.9,129.6,39.2
						c50.8,22.2,95,51.1,131.4,86.1c46.4,44.5,80.4,98.9,101,161.6"/>
                        <path id="Stroke-91" class="st1" d="M574,1144c25.4,40.5,61.7,76.5,107.8,107.1"/>
                    </g>
                </g>
            </g>
        </g>
    </g>
</svg>
