<?xml version="1.0" encoding="UTF-8"?>
<svg width="632px" height="307px" viewBox="0 0 632 307" version="1.1"
    xmlns="http://www.w3.org/2000/svg"
    xmlns:xlink="http://www.w3.org/1999/xlink">
    <desc>Created with acha.</desc>
    <g id="Symbols" stroke="none" stroke-width="1" fill="1" fill-rule="evenodd" opacity="0.5">
        <g id="MOBILE-Footer" transform="translate(-1.000000, -2.000000)">
            <g id="Group-93" transform="translate(166.500000, -107.000000) rotate(-90.000000) translate(-166.500000, 107.000000) translate(-359.500000, -695.500000)">
                <path d="M182.794272,594.64975 C198.105262,548.938426 215.604966,492.885052 208.14778,450.527678 C182.747294,306.251649 22.374284,329.335937 22,329.383663 C22.4551479,329.32516 22.7085212,329.282822 22.753959,329.275894" id="Stroke-1" stroke="#fff" stroke-width="1.05721" stroke-linecap="round" stroke-linejoin="round"></path>
                <path d="M153.005206,759.77777 C152.869663,730.418971 155.381062,701.180259 160.534014,673" id="Stroke-3" stroke="#fff" stroke-width="1.05721" stroke-linecap="round" stroke-linejoin="round"></path>
                <path d="M137,242 C174.781895,253.283496 207.763558,271.70982 235.030843,296.767065 C269.115335,328.090353 294.314817,369.923504 309.928469,421.103374 C330.049701,487.053863 304.38506,563.67741 283.763242,625.245518 C275.711514,649.284338 268.107233,671.988353 264.829552,689.913547 C257.231432,731.468036 256.911057,776.053935 263.903083,818.850086 C272.081113,868.91377 289.845742,915.971446 316.703318,958.717561 C347.550176,1007.81209 390.119209,1050.54281 443.228266,1085.72194 C503.323189,1125.52825 577.424498,1155.92549 663.473631,1176.0692" id="Stroke-5" stroke="#fff" stroke-width="1.05721" stroke-linecap="round" stroke-linejoin="round"></path>
                <path d="M40,42.510079 C40,42.510079 354.660439,19.013187 468.684609,290.972547 C552.258539,490.303539 490.668791,610.622345 478.713265,688.618417 C460.359485,808.349108 406.112943,1049.95665 1051.57193,967.469655" id="Stroke-13" stroke="#fff" stroke-width="1.06799" stroke-linecap="round" stroke-linejoin="round"></path>
                <path d="M96,391 C109.084539,395.42164 121.393555,402.976302 132.866208,414.64546 C144.184064,426.157583 151.549605,438.270137 155.90778,450.970806 C160.265956,463.671475 161.615997,476.960259 160.902085,490.824072 C160.187403,504.687885 157.408767,519.126727 153.50882,534.127511 C149.608873,549.128295 144.587613,564.691791 139.389994,580.804144 C133.092627,600.322791 126.585783,620.491906 121.403567,641.406173 C116.22135,662.320439 112.36299,683.979086 111.362589,706.476799" id="Stroke-21" stroke="#fff" stroke-width="1.05721" stroke-linecap="round" stroke-linejoin="round"></path>
                <path d="M208.653637,827.949144 C200.762867,779.649036 201.138691,729.255885 209.738753,682.215914 C213.647942,660.835928 221.794396,636.514597 230.419101,610.766086 C248.811388,555.853532 283.214715,475.033892 241.752361,399" id="Stroke-77" stroke="#ffff" stroke-width="1.05721" stroke-linecap="round" stroke-linejoin="round"></path>
                <path d="M312,811 C319.112937,854.541302 334.554849,895.455331 357.896003,932.605885" id="Stroke-81" stroke="#fff" stroke-width="1.05721" stroke-linecap="round" stroke-linejoin="round"></path>
                <path d="M188,208 C285.639616,247.98182 382.236474,337.087417 360.263845,534.687935 C355.933394,573.631317 340.955101,609.617957 330.198671,641.731813" id="Stroke-83" stroke="#fff" stroke-width="1.05721" stroke-linecap="round" stroke-linejoin="round"></path>
                <path d="M399,907 C422.345004,944.155173 455.147997,976.882547 496.499452,1004.27301 C546.809081,1037.59773 610.151649,1063.35086 684.768176,1080.81881" id="Stroke-85" stroke="#fff" stroke-width="1.05721" stroke-linecap="round" stroke-linejoin="round"></path>
                <path d="M408.668318,540 C406.758391,596.802374 338.457715,706.734482 360.306353,803.68341" id="Stroke-87" stroke="#fff" stroke-width="1.05721" stroke-linecap="round" stroke-linejoin="round"></path>
            </g>
        </g>
    </g>
</svg>