<svg xmlns="http://www.w3.org/2000/svg" width="236.800000pt" height="136.800000pt" viewBox="0 0 236.800000 136.800000" preserveAspectRatio="xMidYMid meet"><metadata>
Created by potrace 1.13, written by Peter Selinger 2001-2015
</metadata><g transform="translate(0.000000,136.800000) scale(0.080000,-0.080000)" fill="#000000" stroke="none"><path d="M1424 1273 c-37 -65 -170 -295 -296 -511 -185 -318 -227 -396 -217 -408 10 -12 77 -14 413 -14 368 0 404 2 441 19 22 10 48 27 57 37 29 33 238 438 238 462 0 48 -28 57 -200 62 l-158 5 129 220 c71 121 128 224 126 230 -2 6 -90 11 -234 13 l-231 2 -68 -117z m453 60 c-3 -5 -74 -127 -159 -273 -85 -146 -205 -354 -267 -463 l-114 -197 -179 0 -180 0 20 33 c27 43 260 444 408 699 l119 208 178 0 c98 0 176 -3 174 -7z m123 -483 c0 -5 -48 -100 -107 -211 -81 -154 -114 -206 -137 -220 -27 -16 -52 -19 -188 -19 -87 0 -158 2 -158 4 0 4 40 75 222 389 l39 67 164 0 c102 0 165 -4 165 -10z"></path></g></svg>